<?xml version="1.0" standalone="no"?>
<!DOCTYPE svg PUBLIC "-//W3C//DTD SVG 20010904//EN"
 "http://www.w3.org/TR/2001/REC-SVG-20010904/DTD/svg10.dtd">
<svg version="1.0" xmlns="http://www.w3.org/2000/svg"
 width="700.000000pt" height="700.000000pt" viewBox="0 0 700.000000 700.000000"
 preserveAspectRatio="xMidYMid meet">
<metadata>
Created by potrace 1.11, written by Peter Selinger 2001-2013
</metadata>
<g transform="translate(0.000000,700.000000) scale(0.100000,-0.100000)"
fill="#000000" stroke="none">
<path d="M4018 4570 c-177 -176 -325 -319 -328 -319 -3 0 -149 141 -324 314
-176 173 -324 315 -328 315 -5 0 -136 -126 -291 -279 -155 -154 -375 -371
-489 -483 -113 -112 -455 -448 -758 -748 -304 -300 -664 -655 -800 -789 l-249
-244 137 -133 136 -134 126 124 c69 69 202 200 295 291 94 92 424 418 735 725
311 307 642 633 735 725 94 91 227 223 297 293 l128 126 171 -169 c94 -94 177
-176 185 -183 8 -7 14 -18 14 -23 0 -6 -45 -54 -99 -107 -55 -53 -336 -331
-626 -617 -289 -286 -616 -608 -726 -716 -109 -108 -199 -198 -199 -201 0 -4
233 -238 263 -265 3 -2 273 263 1023 1003 319 315 642 634 719 709 77 76 238
234 357 353 120 119 220 214 222 211 2 -2 88 -87 190 -187 l186 -184 -152
-150 c-84 -83 -418 -412 -741 -732 -324 -319 -630 -621 -679 -670 l-91 -88
135 -135 134 -134 129 127 c72 70 396 389 720 709 325 321 679 670 787 776
108 107 305 302 438 433 l241 239 35 -34 c19 -19 162 -159 317 -311 l282 -277
135 134 134 135 -199 195 c-110 108 -313 308 -450 445 l-250 249 -325 -320
c-179 -175 -328 -318 -332 -317 -4 2 -151 146 -326 320 l-320 317 -324 -319z"/>
</g>
</svg>
